<svg xmlns="http://www.w3.org/2000/svg" xmlns:xlink="http://www.w3.org/1999/xlink" version="1.1" x="0px" y="0px"
     viewBox="0 0 100 125">
    <g>
        <path d="M70.084,5.557 C85.097,5.557 97.327,19.476 97.327,36.577 C97.327,46.719 90.864,56.562 86.489,61.335 C78.138,70.681 50,94.443 50,94.443 C50,94.443 21.863,70.681 13.511,61.335 C9.136,56.562 2.673,46.719 2.673,36.577 C2.673,19.476 14.903,5.557 29.916,5.557 C37.87,5.557 45.228,12.616 50.199,18.88 C55.17,12.616 62.13,5.557 70.084,5.557 z M50.146,44.802 C46.886,44.858 41.239,48.175 38.554,51.179 C37.148,52.714 35.071,55.878 35.071,59.137 C35.071,64.634 39.002,69.109 43.828,69.109 C46.384,69.109 47.812,67.469 50.585,67.489 C53.686,67.512 54.183,69.109 56.739,69.109 C61.565,69.109 65.496,64.634 65.496,59.137 C65.496,55.878 63.419,52.714 62.013,51.179 C59.328,48.175 53.659,44.742 50.146,44.802 z M34.519,39.01 L33.691,39.121 C31.499,39.708 30.333,42.464 31.086,45.276 C31.84,48.089 34.228,49.892 36.42,49.304 C38.612,48.717 39.779,45.961 39.025,43.149 C38.248,40.953 36.969,39.289 34.519,39.01 z M65.561,39.364 C62.969,39.934 62.169,40.562 61.247,43.182 C60.546,45.799 61.699,48.381 63.823,48.95 C65.947,49.519 68.237,47.859 68.938,45.243 C69.639,42.627 68.486,40.044 66.362,39.475 L65.561,39.364 z M43.317,31.496 L43.317,31.496 C40.746,31.769 38.947,34.675 39.298,37.986 C39.65,41.298 42.018,43.762 44.589,43.489 C47.159,43.216 48.958,40.31 48.607,36.999 C48.256,33.687 45.887,31.224 43.317,31.496 z M56.916,30.907 C54.343,30.666 52.001,33.19 51.686,36.545 C51.372,39.9 53.203,42.816 55.777,43.057 C58.35,43.299 60.692,40.775 61.007,37.419 C61.321,34.064 59.49,31.149 56.916,30.907 z"
              fill="#000000"/>
    </g>
</svg>